<svg width="24" height="24" viewBox="0 0 24 24" fill="none" xmlns="http://www.w3.org/2000/svg">
<path fill-rule="evenodd" clip-rule="evenodd" d="M16 6.5H12C11.6022 6.5 11.2206 6.65804 10.9393 6.93934C10.658 7.22064 10.5 7.60218 10.5 8V9H12C12.7956 9 13.5587 9.31607 14.1213 9.87868C14.6839 10.4413 15 11.2044 15 12V13.5H16C16.3978 13.5 16.7794 13.342 17.0607 13.0607C17.342 12.7794 17.5 12.3978 17.5 12V8C17.5 7.60218 17.342 7.22064 17.0607 6.93934C16.7794 6.65804 16.3978 6.5 16 6.5ZM15 15H16C16.7956 15 17.5587 14.6839 18.1213 14.1213C18.6839 13.5587 19 12.7956 19 12V8C19 7.20435 18.6839 6.44129 18.1213 5.87868C17.5587 5.31607 16.7956 5 16 5H12C11.2044 5 10.4413 5.31607 9.87868 5.87868C9.31607 6.44129 9 7.20435 9 8V9H8C7.20435 9 6.44129 9.31607 5.87868 9.87868C5.31607 10.4413 5 11.2044 5 12V16C5 16.7956 5.31607 17.5587 5.87868 18.1213C6.44129 18.6839 7.20435 19 8 19H12C12.7956 19 13.5587 18.6839 14.1213 18.1213C14.6839 17.5587 15 16.7956 15 16V15ZM8 10.5H12C12.3978 10.5 12.7794 10.658 13.0607 10.9393C13.342 11.2206 13.5 11.6022 13.5 12V16C13.5 16.3978 13.342 16.7794 13.0607 17.0607C12.7794 17.342 12.3978 17.5 12 17.5H8C7.60218 17.5 7.22064 17.342 6.93934 17.0607C6.65804 16.7794 6.5 16.3978 6.5 16V12C6.5 11.6022 6.65804 11.2206 6.93934 10.9393C7.22064 10.658 7.60218 10.5 8 10.5Z" fill="black"/>
</svg>
