<svg width="36" height="36" viewBox="0 0 36 36" fill="none" xmlns="http://www.w3.org/2000/svg">
<path d="M27.9721 8.02775C27.6463 7.70192 27.2594 7.44345 26.8337 7.2671C26.4079 7.09076 25.9516 7 25.4908 7C25.03 7 24.5736 7.09076 24.1479 7.2671C23.7221 7.44345 23.3353 7.70192 23.0095 8.02775L9.45254 21.5845C9.12111 21.9162 8.87133 22.3203 8.72291 22.765L7.04731 27.7929C6.99332 27.9543 6.98537 28.1276 7.02434 28.2933C7.06331 28.459 7.14767 28.6106 7.26796 28.7311C7.38825 28.8515 7.53972 28.9361 7.70539 28.9753C7.87106 29.0146 8.04438 29.0069 8.20593 28.9532L13.2346 27.276C13.68 27.1293 14.0833 26.8782 14.4152 26.5464L25.3322 15.631L25.8144 16.1112C26.0718 16.369 26.2165 16.7184 26.2165 17.0827C26.2165 17.447 26.0718 17.7964 25.8144 18.0542L23.7666 20.1017C23.6815 20.1869 23.614 20.288 23.568 20.3993C23.522 20.5106 23.4984 20.6298 23.4984 20.7503C23.4985 20.8707 23.5223 20.9899 23.5685 21.1011C23.6147 21.2124 23.6823 21.3134 23.7675 21.3985C23.8528 21.4836 23.9539 21.5511 24.0652 21.5971C24.1765 21.6431 24.2958 21.6667 24.4162 21.6666C24.5367 21.6665 24.6559 21.6427 24.7672 21.5966C24.8784 21.5504 24.9795 21.4828 25.0646 21.3976L27.1105 19.352C27.4084 19.0541 27.6448 18.7005 27.806 18.3113C27.9673 17.9221 28.0502 17.5049 28.0502 17.0836C28.0502 16.6624 27.9673 16.2452 27.806 15.856C27.6448 15.4668 27.4084 15.1132 27.1105 14.8153L26.6283 14.3332L27.9721 12.9897C28.298 12.6639 28.5565 12.2771 28.7329 11.8514C28.9092 11.4257 29 10.9695 29 10.5087C29 10.0479 28.9092 9.59168 28.7329 9.166C28.5565 8.74031 28.298 8.35353 27.9721 8.02775ZM24.7126 13.6587L24.6576 13.7137L13.1191 25.2487C12.9888 25.3792 12.83 25.4777 12.6552 25.5365L9.36638 26.6326L10.4627 23.3442C10.5206 23.169 10.6185 23.0096 10.7487 22.8786L24.3056 9.3255C24.4612 9.16988 24.646 9.04644 24.8494 8.96222C25.0527 8.878 25.2707 8.83465 25.4908 8.83465C25.7109 8.83465 25.9289 8.878 26.1322 8.96222C26.3356 9.04644 26.5203 9.16988 26.676 9.3255C26.8316 9.48112 26.9551 9.66587 27.0393 9.8692C27.1236 10.0725 27.1669 10.2905 27.1669 10.5105C27.1669 10.7306 27.1236 10.9485 27.0393 11.1519C26.9551 11.3552 26.8316 11.5399 26.676 11.6956L24.7126 13.6587Z" fill="#333333"/>
</svg>
