<svg width="20" height="20" viewBox="0 0 20 20" fill="none" xmlns="http://www.w3.org/2000/svg">
<path d="M10 3.5C9.20435 3.5 8.44129 3.81607 7.87868 4.37868C7.31607 4.94129 7 5.70435 7 6.5V10.5C7 11.2956 7.31607 12.0587 7.87868 12.6213C8.44129 13.1839 9.20435 13.5 10 13.5C10.7956 13.5 11.5587 13.1839 12.1213 12.6213C12.6839 12.0587 13 11.2956 13 10.5V6.5C13 5.70435 12.6839 4.94129 12.1213 4.37868C11.5587 3.81607 10.7956 3.5 10 3.5ZM12 10.5C12 11.0304 11.7893 11.5391 11.4142 11.9142C11.0391 12.2893 10.5304 12.5 10 12.5C9.46957 12.5 8.96086 12.2893 8.58579 11.9142C8.21071 11.5391 8 11.0304 8 10.5V6.5C8 5.96957 8.21071 5.46086 8.58579 5.08579C8.96086 4.71071 9.46957 4.5 10 4.5C10.5304 4.5 11.0391 4.71071 11.4142 5.08579C11.7893 5.46086 12 5.96957 12 6.5V10.5ZM5.5 10C5.63261 10 5.75979 10.0527 5.85355 10.1464C5.94732 10.2402 6 10.3674 6 10.5C6 11.5609 6.42143 12.5783 7.17157 13.3284C7.92172 14.0786 8.93913 14.5 10 14.5C11.0609 14.5 12.0783 14.0786 12.8284 13.3284C13.5786 12.5783 14 11.5609 14 10.5C14 10.3674 14.0527 10.2402 14.1464 10.1464C14.2402 10.0527 14.3674 10 14.5 10C14.6326 10 14.7598 10.0527 14.8536 10.1464C14.9473 10.2402 15 10.3674 15 10.5C15 13.093 13.0265 15.225 10.4995 15.475L10.5 15.5V17C10.5 17.1326 10.4473 17.2598 10.3536 17.3536C10.2598 17.4473 10.1326 17.5 10 17.5C9.86739 17.5 9.74021 17.4473 9.64645 17.3536C9.55268 17.2598 9.5 17.1326 9.5 17V15.5L9.5005 15.475C6.9735 15.225 5 13.0935 5 10.5C5 10.3674 5.05268 10.2402 5.14645 10.1464C5.24021 10.0527 5.36739 10 5.5 10Z" fill="#666666"/>
</svg>
