<svg width="20" height="20" viewBox="0 0 20 20" fill="none" xmlns="http://www.w3.org/2000/svg">
<path d="M5 5H8.75V8.75H5V5ZM11.25 5H15V8.75H11.25V5ZM5 11.25H8.75V15H5V11.25ZM11.25 13.125C11.25 13.6223 11.4475 14.0992 11.7992 14.4508C12.1508 14.8025 12.6277 15 13.125 15C13.6223 15 14.0992 14.8025 14.4508 14.4508C14.8025 14.0992 15 13.6223 15 13.125C15 12.6277 14.8025 12.1508 14.4508 11.7992C14.0992 11.4475 13.6223 11.25 13.125 11.25C12.6277 11.25 12.1508 11.4475 11.7992 11.7992C11.4475 12.1508 11.25 12.6277 11.25 13.125Z" stroke="#666666" stroke-linecap="round" stroke-linejoin="round"/>
</svg>
